<svg version="1.2" id="Layer_1" viewBox="0 0 860 398" xmlns="http://www.w3.org/2000/svg" xmlns:svg="http://www.w3.org/2000/svg" xmlns:xlink="http://www.w3.org/1999/xlink">
  <g id="untitled" transform="matrix(1,0,0,1,195.5,149.5)" opacity="1">
    <polygon points="43.459,74.238 43.459,75.986 33.27,87.51 14.444,87.332 14.645,68.531 23.549,60.637 19.925,60.637 4.15,46.618 4.15,21.261 29.51,21.281 41.265,34.567 41.265,31.452 58.052,11.83 89.99,11.83 89.99,43.776 70.376,60.637 56.974,60.637 63.229,66.412 63.229,80.471 49.179,80.455 " id="untitled" style="opacity:1;stroke:none;fill:#59584D;fill-opacity:1;stroke-opacity:1;stroke-width:1;stroke-miterlimit:3;stroke-linecap:none;stroke-linejoin:round;"/>
    <polygon points="47.696,71.459 43.656,67.076 43.656,60.859 49.845,60.859 54.243,64.926 47.696,64.926 " id="untitled" style="opacity:1;stroke:none;fill:#999999;fill-opacity:1;stroke-opacity:1;stroke-width:1;stroke-miterlimit:3;stroke-linecap:none;stroke-linejoin:round;"/>
    <polygon points="59.157,14.237 43.656,32.33 43.656,58.248 69.49,58.248 87.61,42.667 59.157,42.667 " id="untitled" style="opacity:1;stroke:none;fill:#FFCC33;fill-opacity:1;stroke-opacity:1;stroke-width:1;stroke-miterlimit:3;stroke-linecap:none;stroke-linejoin:round;"/>
    <polygon points="34.879,77.773 41.068,70.781 41.068,60.859 31.178,60.859 24.18,67.076 34.879,67.076 " id="untitled" style="opacity:1;stroke:none;fill:#FF9966;fill-opacity:1;stroke-opacity:1;stroke-width:1;stroke-miterlimit:3;stroke-linecap:none;stroke-linejoin:round;"/>
    <polygon points="31.267,31.421 41.068,42.489 41.068,58.248 25.378,58.248 14.282,48.405 31.267,48.405 " id="untitled" style="opacity:1;stroke:none;fill:#B0CC49;fill-opacity:1;stroke-opacity:1;stroke-width:1;stroke-miterlimit:3;stroke-linecap:none;stroke-linejoin:round;"/>
    <rect x="14.279" y="31.402" width="16.98" height="16.995" id="untitled" style="opacity:1;stroke:none;fill:#F2F5DE;fill-opacity:1;stroke-opacity:1;stroke-width:1;stroke-miterlimit:3;stroke-linecap:none;stroke-linejoin:round;"/>
    <rect x="59.157" y="14.217" width="28.457" height="28.449" id="untitled" style="opacity:1;stroke:none;fill:#F2F5DE;fill-opacity:1;stroke-opacity:1;stroke-width:1;stroke-miterlimit:3;stroke-linecap:none;stroke-linejoin:round;"/>
    <rect x="47.696" y="64.926" width="6.547" height="6.547" id="untitled" style="opacity:1;stroke:none;fill:#F2F5DE;fill-opacity:1;stroke-opacity:1;stroke-width:1;stroke-miterlimit:3;stroke-linecap:none;stroke-linejoin:round;"/>
    <rect x="24.18" y="66.975" width="10.699" height="10.707" id="untitled" style="opacity:1;stroke:none;fill:#F2F5DE;fill-opacity:1;stroke-opacity:1;stroke-width:1;stroke-miterlimit:3;stroke-linecap:none;stroke-linejoin:round;"/>
  </g>
  <text letter-spacing="0" transform="matrix(0.7388466000556946 0 0 0.7388466000556946 278 259.71153654456134)">
    <tspan style="fill:#59584d;font-family:Moderna;font-size:50">InstaRevu</tspan>
  </text>
</svg>